<?xml version="1.0" encoding="UTF-8"?>
<svg version="1.1" xmlns="http://www.w3.org/2000/svg" width="100" height="100">

    <style>
        .hover-fill {
            fill: gray;
            transition: fill 0.3s ease;
        }

        .hover-fill:hover {
            fill: #fff;
        }
    </style>

    <path class="hover-fill"
        d="M0 0 C2.36798533 -0.00542549 4.73596727 -0.01255054 7.10394287 -0.02124023 C13.51300129 -0.03942543 19.9218012 -0.03242572 26.33086395 -0.01972389 C30.33868378 -0.01259401 34.3464861 -0.01396087 38.35430908 -0.01768494 C39.3547657 -0.01860433 39.3547657 -0.01860433 40.37543356 -0.01954231 C41.73070766 -0.02082131 43.08598174 -0.02211817 44.44125581 -0.02343267 C57.12608283 -0.03481725 69.8107939 -0.0217582 82.49560189 -0.00023121 C93.36105824 0.01763788 104.22634361 0.01453318 115.09179688 -0.00390625 C127.7336807 -0.0253506 140.37546311 -0.03371882 153.01736259 -0.0214572 C154.36743035 -0.02018311 155.71749813 -0.01892562 157.06756592 -0.01768494 C158.0637489 -0.01675928 158.0637489 -0.01675928 159.08005679 -0.01581493 C163.74231267 -0.01237268 168.40446837 -0.01836326 173.06671143 -0.02760315 C179.35087004 -0.03918829 185.63470689 -0.03108679 191.91883087 -0.00802612 C194.22017127 -0.00275333 196.52153892 -0.0042282 198.82286835 -0.01307678 C214.35669994 -0.06728123 226.88977196 0.23272255 238.7109375 11.51757812 C247.42563621 20.64644074 250.32814891 30.63891249 250.22851562 43.05664062 C250.23902954 44.7004068 250.23902954 44.7004068 250.24975586 46.37738037 C250.26722628 49.96604459 250.25575146 53.5539072 250.2421875 57.14257812 C250.24488554 59.65641428 250.24877056 62.17024942 250.25378418 64.68408203 C250.25966442 69.93920935 250.25155085 75.1941319 250.23242188 80.44921875 C250.21065848 86.49730604 250.21771197 92.54485369 250.2397275 98.59292793 C250.26017017 104.446515 250.25787507 110.29989944 250.24620056 116.15350342 C250.24354423 118.62847979 250.24676426 121.10347006 250.25611877 123.57843018 C250.26634926 127.0454892 250.25069127 130.51153173 250.22851562 133.97851562 C250.23661255 134.98767029 250.24470947 135.99682495 250.25305176 137.03656006 C250.1212664 148.23478518 246.45553731 157.40491813 238.7109375 165.51757812 C234.19584327 169.82782876 229.82768038 172.67011681 223.9140625 174.71679688 C222.93598633 175.05928467 221.95791016 175.40177246 220.95019531 175.75463867 C219.8417627 176.1322937 219.8417627 176.1322937 218.7109375 176.51757812 C218.71034041 177.15567917 218.70974332 177.79378021 218.70912814 178.45121765 C218.67323358 216.27095895 218.61659368 254.09061632 218.53301655 291.91028339 C218.5229991 296.45141907 218.51315497 300.99255511 218.50341797 305.53369141 C218.50050591 306.88977809 218.50050591 306.88977809 218.49753502 308.27326047 C218.46651461 322.91130144 218.44953425 337.54932674 218.43774328 352.18739438 C218.42533194 367.20760258 218.39783091 382.2277285 218.35632443 397.24788475 C218.33118856 406.51601212 218.31782029 415.78400303 218.31950793 425.05216497 C218.31953768 431.40784565 218.30490912 437.76338733 218.27877322 444.11901385 C218.26412666 447.78582432 218.25592469 451.45234976 218.26513481 455.11918449 C218.27495722 459.09713727 218.25390303 463.07459006 218.22991943 467.05249023 C218.24156006 468.78597214 218.24156006 468.78597214 218.25343585 470.55447388 C218.1702518 478.33979503 217.0198377 483.74161646 211.74609375 489.75976562 C211.09511719 490.29859375 210.44414062 490.83742188 209.7734375 491.39257812 C209.12503906 491.946875 208.47664063 492.50117188 207.80859375 493.07226562 C203.09470959 496.32019326 199.07340647 496.76870139 193.40257549 496.77484703 C192.67320236 496.77835311 191.94382922 496.78185918 191.19235387 496.7854715 C188.74117192 496.79479703 186.29022695 496.78985924 183.83903503 496.78500366 C182.06675517 496.78873934 180.29447695 496.79334053 178.52220136 496.79873431 C173.64624744 496.81098989 168.770362 496.81070083 163.89439619 496.80834556 C158.63796576 496.80793804 153.38155748 496.81897033 148.12513733 496.82846069 C137.82463872 496.84508563 127.52416299 496.85057091 117.22365209 496.85168545 C108.85236358 496.85263521 100.48108264 496.85674187 92.10979652 496.8630867 C68.38472152 496.8807031 44.65966462 496.88992493 20.93458303 496.88842575 C19.01536409 496.88830588 19.01536409 496.88830588 17.05737305 496.88818359 C15.77633469 496.88810183 14.49529633 496.88802007 13.17543862 496.88793583 C-7.58935312 496.88712279 -28.35407235 496.90626395 -49.11884312 496.93446033 C-70.43107909 496.96317216 -91.74327968 496.97700156 -113.0555355 496.97527277 C-125.02432198 496.97460829 -136.99303244 496.98012617 -148.96180153 497.00162888 C-159.15177735 497.01981827 -169.34164269 497.02420643 -179.53162769 497.01061003 C-184.7315901 497.00406911 -189.93134042 497.00400377 -195.13128281 497.02131653 C-199.89153664 497.03700251 -204.65140943 497.03422943 -209.41165372 497.01674826 C-211.13370957 497.0136685 -212.85579354 497.01734741 -214.57781623 497.02846842 C-232.02140671 497.13365977 -232.02140671 497.13365977 -239.53125 490.55273438 C-240.07007813 489.90175781 -240.60890625 489.25078125 -241.1640625 488.58007812 C-241.71835938 487.93167969 -242.27265625 487.28328125 -242.84375 486.61523438 C-245.73514494 482.41880442 -246.53926939 478.76308655 -246.54633141 473.7084837 C-246.5527803 472.54000792 -246.55922919 471.37153215 -246.5658735 470.16764802 C-246.5627763 468.88809245 -246.5596791 467.60853689 -246.55648804 466.29020691 C-246.56022503 464.91390732 -246.56482675 463.53760984 -246.57021868 462.16131574 C-246.58245812 458.3799074 -246.58218711 454.59858746 -246.57982993 450.81716383 C-246.579422 446.73865543 -246.59045863 442.66017547 -246.59994507 438.5816803 C-246.61656124 430.59127358 -246.62205489 422.60089638 -246.62316982 414.61047383 C-246.62412001 408.11561488 -246.62822884 401.62076567 -246.63457108 395.12590981 C-246.65218522 376.71323642 -246.66140968 358.30058636 -246.65991013 339.88790449 C-246.65983022 338.89517677 -246.6597503 337.90244905 -246.65966797 336.87963867 C-246.65958621 335.88569933 -246.65950445 334.89175999 -246.65942021 333.86770127 C-246.65860727 317.75879956 -246.67774635 301.64999134 -246.7059447 285.54111668 C-246.73466772 269.00205159 -246.74848532 252.4630321 -246.74675715 235.92394143 C-246.74609304 226.63793097 -246.75159436 217.35201851 -246.77311325 208.0660305 C-246.7913174 200.15974778 -246.79567871 192.25360749 -246.7820944 184.34731289 C-246.77556083 180.31388159 -246.7754614 176.28072362 -246.7928009 172.24731827 C-246.8085198 168.55287076 -246.80568053 164.85891356 -246.78823264 161.1644781 C-246.78370763 159.19921694 -246.7988294 157.23394064 -246.81471193 155.26873845 C-246.75108251 147.13103999 -245.83909735 141.56871134 -240.32421875 135.27539062 C-239.67324219 134.7365625 -239.02226562 134.19773438 -238.3515625 133.64257812 C-237.70316406 133.08828125 -237.05476563 132.53398437 -236.38671875 131.96289062 C-231.68951332 128.72645486 -227.69527218 128.26896707 -222.04411316 128.27706909 C-221.32521937 128.27536024 -220.60632558 128.27365139 -219.86564714 128.27189076 C-217.46265671 128.26860292 -215.05994702 128.27958779 -212.65698242 128.29052734 C-210.93212897 128.29109161 -209.20727504 128.2907746 -207.48242188 128.28964233 C-202.80307302 128.28906843 -198.12382667 128.30082896 -193.44450164 128.31479025 C-188.5531197 128.3272912 -183.66173542 128.32846761 -178.77033997 128.33084106 C-169.50920837 128.33705769 -160.24812397 128.35347101 -150.98701316 128.37354004 C-140.44296901 128.39589333 -129.89892261 128.40689104 -119.35486066 128.41693091 C-97.66623493 128.43783706 -75.97765169 128.47301662 -54.2890625 128.51757812 C-54.29794495 127.32678146 -54.30682739 126.1359848 -54.315979 124.90910339 C-54.39727277 113.65473262 -54.45712755 102.40042189 -54.49631119 91.14582348 C-54.51713353 85.36051833 -54.54535328 79.57545133 -54.59082031 73.7902832 C-54.63446902 68.201126 -54.65823982 62.61219704 -54.66857147 57.02288246 C-54.67592876 54.89675622 -54.69029542 52.77064163 -54.71198273 50.64461327 C-54.86167618 35.3537406 -54.38976779 23.14584169 -43.2890625 11.51757812 C-30.56148439 -0.63256733 -16.58753222 -0.06377888 0 0 Z M-32.5390625 25.95507812 C-38.36058068 33.09897772 -38.43898033 41.0161917 -38.43432617 49.8684082 C-38.43768478 50.7911705 -38.4410434 51.7139328 -38.44450378 52.66465759 C-38.45397766 55.70548867 -38.45595514 58.74626447 -38.45703125 61.78710938 C-38.46024641 63.90931724 -38.46361068 66.03152489 -38.46711731 68.1537323 C-38.47309974 72.59964512 -38.47495813 77.04553852 -38.47436523 81.49145508 C-38.47426369 87.17393217 -38.48791228 92.85628411 -38.50513744 98.53873158 C-38.51628435 102.92177395 -38.51828361 107.30478632 -38.51775551 111.68784142 C-38.5189317 113.78209553 -38.52333315 115.87635051 -38.53108788 117.97059059 C-38.54094167 120.90666972 -38.53798844 123.84248052 -38.53198242 126.77856445 C-38.53760193 127.6344516 -38.54322144 128.49033875 -38.54901123 129.37216187 C-38.50188861 138.48843689 -37.37430987 146.46865395 -30.6484375 153.14648438 C-23.16299429 159.89965597 -15.91335616 160.70476284 -6.03125 160.34179688 C-3.58337222 160.30302574 -1.13554914 160.27672121 1.3125 160.2512207 C2.98464315 160.22064456 4.65653484 160.16687901 6.32714844 160.08911133 C19.83218491 159.49502857 19.83218491 159.49502857 24.62948608 162.86550903 C28.11148329 166.1249926 30.87609283 169.82500611 33.52198792 173.77755737 C35.27737755 176.34655982 37.27208322 178.70073168 39.2734375 181.08007812 C39.98371094 181.9540625 40.69398438 182.82804688 41.42578125 183.72851562 C44.9448135 188.0235396 48.52730132 192.26265253 52.140625 196.47851562 C53.70439121 198.32746716 55.2392361 200.20210511 56.71875 202.11914062 C60.16136867 206.53725963 60.16136867 206.53725963 65.3984375 208.26757812 C69.16800295 207.41409161 70.46545369 206.62670956 72.7109375 203.51757812 C73.57001806 200.78847199 73.8337218 198.335142 73.82446289 195.48339844 C73.82438736 194.70289124 73.82431183 193.92238403 73.82423401 193.1182251 C73.81907272 192.28579285 73.81391144 191.4533606 73.80859375 190.59570312 C73.8071788 189.73571716 73.80576385 188.8757312 73.80430603 187.98968506 C73.79871847 185.24894704 73.78616825 182.50829137 73.7734375 179.76757812 C73.76842089 177.90690222 73.76385827 176.04622504 73.75976562 174.18554688 C73.74875311 169.62952567 73.73149701 165.07356585 73.7109375 160.51757812 C74.40354896 160.51942171 75.09616041 160.5212653 75.80976009 160.52316475 C92.68690544 160.56739372 109.56403235 160.60045896 126.44122219 160.62120247 C134.60300723 160.63150131 142.76475351 160.64553494 150.92651367 160.66845703 C158.04289577 160.68843362 165.15924978 160.70130468 172.27565914 160.70575511 C176.04138197 160.70835528 179.80702448 160.71443761 183.57272148 160.72903824 C187.1226347 160.74268971 190.67243508 160.7467856 194.22237206 160.74379349 C196.13506897 160.74459951 198.04775381 160.75532135 199.9604187 160.76641846 C209.11428476 160.74466083 217.38503965 160.54109414 224.7109375 154.51757812 C232.82534186 146.34479675 233.86207156 138.3322329 233.85620117 127.16674805 C233.85955978 126.24398575 233.8629184 125.32122345 233.86637878 124.37049866 C233.87585266 121.32966758 233.87783014 118.28889178 233.87890625 115.24804688 C233.88212141 113.12583901 233.88548568 111.00363136 233.88899231 108.88142395 C233.89497474 104.43551113 233.89683313 99.98961773 233.89624023 95.54370117 C233.89613869 89.86122408 233.90978728 84.17887214 233.92701244 78.49642467 C233.93815935 74.1133823 233.94015861 69.73036993 233.93963051 65.34731483 C233.9408067 63.25306072 233.94520815 61.15880574 233.95296288 59.06456566 C233.96281667 56.12848653 233.95986344 53.19267573 233.95385742 50.2565918 C233.95947693 49.40070465 233.96509644 48.5448175 233.97088623 47.66299438 C233.92376361 38.54671936 232.79618487 30.5665023 226.0703125 23.88867188 C218.38742217 16.95736864 210.541555 16.36561084 200.54606628 16.38386536 C199.17582801 16.38046702 199.17582801 16.38046702 197.77790815 16.37700003 C194.72196166 16.37067824 191.66605972 16.37148823 188.61010742 16.37231445 C186.416956 16.36932183 184.22380511 16.36591906 182.03065491 16.36213684 C176.07604754 16.35330316 170.12145455 16.35095899 164.16684127 16.35032105 C160.4456764 16.34961019 156.72451518 16.34747518 153.00335121 16.34482384 C140.68878315 16.33604989 128.37422277 16.33140386 116.0596517 16.33215431 C115.39632162 16.33219427 114.73299154 16.33223422 114.04956055 16.33227539 C113.05334469 16.33233671 113.05334469 16.33233671 112.03700326 16.33239927 C101.2766832 16.33280561 90.51639815 16.32323807 79.75608822 16.30913702 C68.69642063 16.29475853 57.63677094 16.28805062 46.5770939 16.2887308 C40.37238104 16.28898565 34.16770781 16.28614176 27.96300316 16.27555275 C22.12633377 16.26586376 16.28974183 16.26579814 10.45306969 16.27306938 C8.31375516 16.27411422 6.17443578 16.27175832 4.03512955 16.26570892 C1.10891561 16.25797184 -1.817032 16.26264524 -4.74324036 16.27033997 C-5.58450448 16.2651964 -6.42576861 16.26005284 -7.29252559 16.25475341 C-17.5392979 16.3140647 -25.45178851 18.09930455 -32.5390625 25.95507812 Z M-228.2890625 147.51757812 C-233.86542202 161.45847691 -230.2890625 177.50277062 -230.2890625 192.51757812 C-145.8090625 192.51757812 -61.3290625 192.51757812 25.7109375 192.51757812 C24.7209375 190.86757812 23.7309375 189.21757812 22.7109375 187.51757812 C22.17774902 186.57325928 21.64456055 185.62894043 21.09521484 184.65600586 C17.44405697 179.11392713 17.44405697 179.11392713 11.79455566 175.92755127 C6.33746173 175.07908118 0.83418806 175.35978184 -4.6640625 175.58007812 C-7.92181129 175.66181031 -11.17885777 175.7124963 -14.4375 175.74023438 C-15.6046051 175.75201721 -15.6046051 175.75201721 -16.79528809 175.76403809 C-27.27556212 175.70850974 -35.83869444 171.88344296 -43.2890625 164.51757812 C-47.29920226 159.79276 -50.11982928 155.09095932 -52.3894043 149.33520508 C-52.74616745 148.43341019 -53.1029306 147.5316153 -53.47050476 146.60249329 C-53.87569084 145.57046028 -53.87569084 145.57046028 -54.2890625 144.51757812 C-76.0898944 144.44750045 -97.89070773 144.39459601 -119.69162941 144.36214161 C-129.81415192 144.34667201 -139.93660444 144.32558068 -150.05908203 144.29125977 C-158.88172018 144.2613603 -167.70430765 144.2420038 -176.52699506 144.23531264 C-181.19864957 144.23140132 -185.87015908 144.22220718 -190.54176712 144.20038795 C-194.93955669 144.18001419 -199.33714163 144.17374613 -203.73497391 144.17825508 C-205.3482474 144.17743028 -206.96152778 144.17146989 -208.57476044 144.1599617 C-210.7799592 144.1450033 -212.9843886 144.14863622 -215.18960571 144.15681458 C-216.42296473 144.1540492 -217.65632374 144.15128382 -218.92705727 144.14843464 C-222.74687975 144.56784582 -225.09412135 145.38472226 -228.2890625 147.51757812 Z M89.7109375 176.51757812 C89.7109375 181.79757813 89.7109375 187.07757813 89.7109375 192.51757812 C126.6709375 192.51757812 163.6309375 192.51757812 201.7109375 192.51757812 C201.7109375 187.23757812 201.7109375 181.95757812 201.7109375 176.51757812 C164.7509375 176.51757812 127.7909375 176.51757812 89.7109375 176.51757812 Z M-230.2890625 208.51757812 C-230.35771856 242.04747485 -230.41058616 275.5773541 -230.44225849 309.1073055 C-230.44601064 313.06518946 -230.4498936 317.02307328 -230.45385742 320.98095703 C-230.45464435 321.76890547 -230.45543128 322.55685391 -230.45624206 323.36867957 C-230.46929849 336.12957092 -230.49295363 348.89042175 -230.52052089 361.65128906 C-230.54856851 374.74363918 -230.5652374 387.83596806 -230.57132798 400.92834699 C-230.57544577 409.00803982 -230.58845475 417.08761813 -230.6128119 425.16727571 C-230.63053388 431.36118931 -230.63242974 437.55501547 -230.62838554 443.74895096 C-230.6292123 446.29105332 -230.63519854 448.83315994 -230.64667892 451.37523651 C-230.66156804 454.84151505 -230.65802876 458.30730054 -230.64982605 461.77359009 C-230.65856457 462.78332339 -230.6673031 463.79305669 -230.67630643 464.83338797 C-230.64272489 470.07071387 -230.49060837 474.12919567 -227.2890625 478.51757812 C-223.23413388 480.64458487 -219.72693142 480.76893169 -215.19375706 480.77205372 C-214.48742196 480.7752602 -213.78108687 480.77846667 -213.05334768 480.78177032 C-210.6805481 480.79008833 -208.30799975 480.78413979 -205.93519592 480.77827454 C-204.21923816 480.7812944 -202.50328174 480.78518304 -200.78732771 480.7898671 C-196.06713032 480.80017712 -191.34700863 480.79795766 -186.62680495 480.79368651 C-181.53810591 480.79122474 -176.44942535 480.80022658 -171.36073303 480.807724 C-161.38976979 480.82048814 -151.41883345 480.82226257 -141.44786341 480.81992374 C-133.34543674 480.8181424 -125.24301826 480.81988624 -117.14059258 480.82414818 C-115.98845209 480.82474337 -114.8363116 480.82533856 -113.64925776 480.82595178 C-111.30886782 480.8271635 -108.96847787 480.82837764 -106.62808793 480.82959416 C-84.66886395 480.84047622 -62.70965531 480.838304 -40.75043046 480.83220931 C-20.65035163 480.82703904 -0.55032125 480.83829734 19.549748 480.85730753 C40.17718621 480.8766673 60.80460149 480.88494524 81.43204886 480.88118428 C93.01734197 480.87926947 104.60259384 480.881787 116.18787956 480.89589882 C126.04998442 480.90778986 135.91202264 480.90924312 145.77412837 480.89710865 C150.80773709 480.89120406 155.8412238 480.89016407 160.87482452 480.90211105 C165.48072007 480.91291606 170.08639092 480.909931 174.69227571 480.89584937 C176.36045872 480.89318754 178.02865904 480.89561525 179.69682514 480.90358523 C181.96141983 480.91365564 184.22522807 480.90530049 186.48979092 480.89230824 C187.74851149 480.89236325 189.00723206 480.89241827 190.30409569 480.89247495 C194.06995928 480.47807053 196.4885298 479.47897249 199.7109375 477.51757812 C202.74086386 473.00930616 201.98155056 467.12666072 201.95144653 461.8938446 C201.95315538 460.81151466 201.95486423 459.72918471 201.95662487 458.61405689 C201.9599236 454.98116299 201.94890957 451.3484531 201.93798828 447.71557617 C201.93742425 445.11388656 201.93774057 442.51219663 201.93887329 439.9105072 C201.93992169 434.30605343 201.93364984 428.70164626 201.92239761 423.09720421 C201.90613942 414.99414181 201.90093428 406.89110194 201.89842163 398.788025 C201.89404503 385.64114127 201.88073687 372.49428236 201.86181641 359.34741211 C201.8434567 346.57690556 201.82930064 333.80640576 201.82080078 321.03588867 C201.82027533 320.24863546 201.81974989 319.46138224 201.81920852 318.65027287 C201.81659843 314.70083127 201.81407102 310.75138963 201.81158471 306.80194795 C201.7908533 274.04047327 201.75562872 241.27902902 201.7109375 208.51757812 C187.08152663 208.30717769 172.4523164 208.148553 157.82169914 208.05126858 C151.02807872 208.00489291 144.23539919 207.94169074 137.44238281 207.83862305 C130.88721375 207.73921167 124.3326551 207.68702536 117.77676773 207.66368294 C115.27517429 207.6470477 112.77363464 207.61456173 110.27245712 207.56600761 C106.76883988 207.50069613 103.26926434 207.49167451 99.76513672 207.49584961 C98.73007492 207.46349213 97.69501312 207.43113464 96.62858582 207.39779663 C93.72138211 207.43530037 91.45799394 207.55774825 88.7109375 208.51757812 C86.63995621 210.65568357 85.28829583 212.72732466 83.88505745 215.34671116 C81.41611389 219.91161785 77.46124708 221.92072264 72.7109375 223.51757812 C63.78803714 224.55259099 56.00137426 224.05757003 48.7109375 218.51757812 C47.95891351 217.30345969 47.95891351 217.30345969 47.19169712 216.06481361 C44.58210874 211.86697501 42.16669756 209.10762531 37.32248187 207.94370222 C29.55460687 206.98913428 21.71321418 207.26689238 13.90405273 207.38232422 C11.24255717 207.38514625 8.58133794 207.38399932 5.9198761 207.37789917 C0.19826242 207.3726684 -5.52220647 207.40390434 -11.24353218 207.46027756 C-19.51528684 207.54172732 -27.78649085 207.56760976 -36.05860304 207.58015747 C-49.48086973 207.6020162 -62.90252693 207.66848926 -76.32446289 207.76318359 C-89.35861167 207.8550461 -102.39259459 207.92579446 -115.42700195 207.96826172 C-116.6331884 207.97220257 -116.6331884 207.97220257 -117.86374224 207.97622304 C-121.89800473 207.9892739 -125.93226839 208.00191086 -129.96653283 208.01434207 C-163.40781797 208.11792329 -196.84836539 208.29397821 -230.2890625 208.51757812 Z "
        fill="#000000" transform="translate(254.2890625,7.482421875)" />
</svg>