<svg xmlns="http://www.w3.org/2000/svg" xmlns:xlink="http://www.w3.org/1999/xlink" width="546" zoomAndPan="magnify" viewBox="0 0 409.5 224.249992" height="299" preserveAspectRatio="xMidYMid meet" version="1.0"><defs><g/><clipPath id="c8eabc3a5f"><path d="M 6.476562 155.164062 L 111.125 155.164062 L 111.125 168.617188 L 6.476562 168.617188 Z M 6.476562 155.164062 " clip-rule="nonzero"/></clipPath><clipPath id="4986d8ff2c"><path d="M 90.941406 119.050781 L 195.59375 119.050781 L 195.59375 132.503906 L 90.941406 132.503906 Z M 90.941406 119.050781 " clip-rule="nonzero"/></clipPath><clipPath id="935d0920aa"><path d="M 120.734375 137.949219 L 134.226562 137.949219 L 134.226562 223.464844 L 120.734375 223.464844 Z M 120.734375 137.949219 " clip-rule="nonzero"/></clipPath><clipPath id="ee0ed69d05"><path d="M 51.328125 61.039062 L 65.976562 61.039062 L 65.976562 146.253906 L 51.328125 146.253906 Z M 51.328125 61.039062 " clip-rule="nonzero"/></clipPath></defs><g clip-path="url(#c8eabc3a5f)"><path fill="#ffffff" d="M 6.476562 155.164062 L 111.117188 155.164062 L 111.117188 168.617188 L 6.476562 168.617188 Z M 6.476562 155.164062 " fill-opacity="1" fill-rule="nonzero"/></g><g fill="#ffffff" fill-opacity="1"><g transform="translate(43.513175, 114.200199)"><g><path d="M 47.875 0 L 62.597656 0 L 62.597656 -64.820312 L 47.875 -64.820312 L 47.875 -39.910156 L 22.5 -39.910156 L 22.5 -64.820312 L 7.777344 -64.820312 L 7.777344 0 L 22.5 0 L 22.5 -26.113281 L 47.875 -26.113281 Z M 47.875 0 "/></g></g></g><g fill="#ffffff" fill-opacity="1"><g transform="translate(116.664535, 114.200199)"><g><path d="M 7.777344 0 L 51.394531 0 L 51.394531 -12.5 L 22.410156 -12.5 L 22.410156 -26.667969 L 47.875 -26.667969 L 47.875 -38.984375 L 22.410156 -38.984375 L 22.410156 -52.410156 L 50.375 -52.410156 L 50.375 -64.820312 L 7.777344 -64.820312 Z M 7.777344 0 "/></g></g></g><g fill="#ffffff" fill-opacity="1"><g transform="translate(175.556035, 114.200199)"><g><path d="M 7.777344 0 L 50.835938 0 L 50.835938 -13.796875 L 22.5 -13.796875 L 22.5 -64.820312 L 7.777344 -64.820312 Z M 7.777344 0 "/></g></g></g><g fill="#ffffff" fill-opacity="1"><g transform="translate(231.669641, 114.200199)"><g><path d="M 7.777344 0 L 50.835938 0 L 50.835938 -13.796875 L 22.5 -13.796875 L 22.5 -64.820312 L 7.777344 -64.820312 Z M 7.777344 0 "/></g></g></g><g fill="#ffffff" fill-opacity="1"><g transform="translate(287.783235, 114.200199)"><g><path d="M 38.523438 1.296875 C 58.800781 1.296875 73.152344 -12.59375 73.152344 -32.410156 C 73.152344 -52.226562 58.800781 -66.117188 38.523438 -66.117188 C 18.242188 -66.117188 3.980469 -52.226562 3.980469 -32.410156 C 3.980469 -12.59375 18.242188 1.296875 38.523438 1.296875 Z M 18.984375 -32.410156 C 18.984375 -44.078125 27.039062 -52.132812 38.523438 -52.132812 C 50.097656 -52.132812 58.058594 -44.078125 58.058594 -32.410156 C 58.058594 -20.742188 50.097656 -12.6875 38.523438 -12.6875 C 27.039062 -12.6875 18.984375 -20.742188 18.984375 -32.410156 Z M 18.984375 -32.410156 "/></g></g></g><g clip-path="url(#4986d8ff2c)"><path fill="#ffffff" d="M 90.941406 119.050781 L 195.585938 119.050781 L 195.585938 132.503906 L 90.941406 132.503906 Z M 90.941406 119.050781 " fill-opacity="1" fill-rule="nonzero"/></g><g fill="#ffffff" fill-opacity="1"><g transform="translate(142.092886, 175.719045)"><g><path d="M 0.394531 0 L 7.820312 0 L 9.871094 -5.285156 L 22.015625 -5.285156 L 24.070312 0 L 31.496094 0 L 19.351562 -30.578125 L 12.539062 -30.578125 Z M 11.664062 -10.746094 L 15.945312 -21.929688 L 20.269531 -10.746094 Z M 11.664062 -10.746094 "/></g></g></g><g fill="#ffffff" fill-opacity="1"><g transform="translate(173.980814, 175.719045)"><g><path d="M 17.691406 0.613281 C 25.730469 0.613281 31.976562 -4.28125 33.503906 -11.707031 L 26.339844 -11.707031 C 25.074219 -8.210938 21.84375 -5.984375 17.824219 -5.984375 C 12.625 -5.984375 8.957031 -9.785156 8.957031 -15.289062 C 8.957031 -20.792969 12.667969 -24.59375 17.867188 -24.59375 C 21.753906 -24.59375 24.945312 -22.496094 26.121094 -19.132812 L 33.289062 -19.132812 C 31.539062 -26.472656 25.425781 -31.191406 17.648438 -31.191406 C 8.386719 -31.191406 1.878906 -24.636719 1.878906 -15.289062 C 1.878906 -5.941406 8.386719 0.613281 17.691406 0.613281 Z M 17.691406 0.613281 "/></g></g></g><g fill="#ffffff" fill-opacity="1"><g transform="translate(209.232264, 175.719045)"><g><path d="M 0.394531 0 L 7.820312 0 L 9.871094 -5.285156 L 22.015625 -5.285156 L 24.070312 0 L 31.496094 0 L 19.351562 -30.578125 L 12.539062 -30.578125 Z M 11.664062 -10.746094 L 15.945312 -21.929688 L 20.269531 -10.746094 Z M 11.664062 -10.746094 "/></g></g></g><g fill="#ffffff" fill-opacity="1"><g transform="translate(241.120192, 175.719045)"><g><path d="M 3.667969 0 L 15.769531 0 C 25.425781 0 31.890625 -6.160156 31.890625 -15.289062 C 31.890625 -24.375 25.425781 -30.578125 15.769531 -30.578125 L 3.667969 -30.578125 Z M 10.613281 -6.378906 L 10.613281 -24.199219 L 15.550781 -24.199219 C 21.054688 -24.199219 24.769531 -20.664062 24.769531 -15.289062 C 24.769531 -9.917969 21.054688 -6.378906 15.640625 -6.378906 Z M 10.613281 -6.378906 "/></g></g></g><g fill="#ffffff" fill-opacity="1"><g transform="translate(274.842766, 175.719045)"><g><path d="M 3.667969 0 L 24.246094 0 L 24.246094 -5.898438 L 10.570312 -5.898438 L 10.570312 -12.582031 L 22.585938 -12.582031 L 22.585938 -18.390625 L 10.570312 -18.390625 L 10.570312 -24.726562 L 23.765625 -24.726562 L 23.765625 -30.578125 L 3.667969 -30.578125 Z M 3.667969 0 "/></g></g></g><g fill="#ffffff" fill-opacity="1"><g transform="translate(301.314114, 175.719045)"><g><path d="M 3.667969 0 L 10.570312 0 L 10.570312 -18.433594 L 17.996094 -7.558594 L 22.804688 -7.558594 L 30.230469 -18.390625 L 30.230469 0 L 37.132812 0 L 37.132812 -30.578125 L 31.277344 -30.578125 L 20.445312 -14.722656 L 9.566406 -30.578125 L 3.667969 -30.578125 Z M 3.667969 0 "/></g></g></g><g fill="#ffffff" fill-opacity="1"><g transform="translate(342.113175, 175.719045)"><g><path d="M 11.664062 0 L 18.609375 0 L 18.609375 -10.789062 L 29.835938 -30.578125 L 21.929688 -30.578125 L 18.171875 -23.5 L 15.160156 -17.953125 L 12.101562 -23.5 L 8.300781 -30.578125 L 0.394531 -30.578125 L 11.664062 -10.703125 Z M 11.664062 0 "/></g></g></g><g clip-path="url(#935d0920aa)"><path fill="#ffffff" d="M 120.734375 223.464844 L 120.734375 137.925781 L 134.226562 137.925781 L 134.226562 223.464844 Z M 120.734375 223.464844 " fill-opacity="1" fill-rule="nonzero"/></g><g clip-path="url(#ee0ed69d05)"><path fill="#ffffff" d="M 51.328125 146.253906 L 51.328125 61.039062 L 65.976562 61.039062 L 65.976562 146.253906 Z M 51.328125 146.253906 " fill-opacity="1" fill-rule="nonzero"/></g></svg>